<?xml version="1.0" standalone="no"?>
<!DOCTYPE svg PUBLIC "-//W3C//DTD SVG 20010904//EN"
 "http://www.w3.org/TR/2001/REC-SVG-20010904/DTD/svg10.dtd">
<svg version="1.0" xmlns="http://www.w3.org/2000/svg"
 width="312.000000pt" height="312.000000pt" viewBox="0 0 312.000000 312.000000"
 preserveAspectRatio="xMidYMid meet">
<metadata>
Created by potrace 1.14, written by Peter Selinger 2001-2017
</metadata>
<g transform="translate(0.000000,312.000000) scale(0.100000,-0.100000)"
fill="#000000" stroke="none">
<path d="M1409 3106 c-2 -3 -29 -7 -59 -10 -59 -7 -91 -12 -118 -20 -9 -3 -28
-7 -42 -10 -47 -8 -225 -70 -232 -80 -4 -6 -8 -7 -8 -3 0 11 -175 -82 -253
-135 -96 -65 -145 -105 -242 -203 -112 -114 -208 -248 -279 -390 -48 -98 -91
-201 -89 -215 1 -3 -3 -12 -8 -21 -4 -9 -10 -27 -12 -40 -3 -13 -10 -44 -17
-69 -27 -101 -35 -179 -35 -355 0 -260 38 -436 141 -650 13 -28 24 -56 24 -63
0 -6 4 -12 10 -12 5 0 12 -11 16 -25 3 -14 10 -25 15 -25 5 0 9 -5 9 -10 0 -9
31 -61 62 -105 65 -92 220 -255 295 -311 21 -16 40 -31 43 -35 15 -17 141 -95
227 -140 90 -47 269 -115 332 -125 14 -3 34 -7 44 -10 91 -28 433 -40 545 -21
45 8 133 25 157 31 52 12 191 60 212 73 13 9 23 12 23 8 0 -9 180 87 253 137
133 90 284 232 370 348 26 36 51 70 55 75 60 75 189 356 206 450 2 11 9 40 16
65 27 102 35 175 35 350 0 157 -7 242 -27 315 -5 22 -12 50 -14 61 -6 35 -45
156 -61 194 -103 233 -195 372 -348 526 -110 111 -205 181 -360 268 -107 60
-256 118 -364 141 -11 3 -31 7 -43 11 -76 18 -211 32 -334 32 -78 1 -143 0
-145 -2z"/>
</g>
</svg>
